<?xml version="1.0" standalone="no"?>
<!DOCTYPE svg PUBLIC "-//W3C//DTD SVG 20010904//EN"
 "http://www.w3.org/TR/2001/REC-SVG-20010904/DTD/svg10.dtd">
<svg version="1.0" xmlns="http://www.w3.org/2000/svg"
 width="250.000000pt" height="250.000000pt" viewBox="0 0 250.000000 250.000000"
 preserveAspectRatio="xMidYMid meet">
<metadata>
Created by potrace 1.14, written by Peter Selinger 2001-2017
</metadata>
<g transform="translate(0.000000,250.000000) scale(0.100000,-0.100000)"
fill="#000000" stroke="none">
<path d="M0 1250 l0 -1250 1250 0 1250 0 0 1250 0 1250 -1250 0 -1250 0 0
-1250z m2410 592 l0 -569 -127 -22 c-496 -85 -730 -80 -1258 29 -77 15 -184
34 -239 41 -134 16 -417 6 -561 -21 -60 -11 -116 -20 -122 -20 -10 0 -13 120
-13 565 l0 565 1160 0 1160 0 0 -568z m-1143 -871 c60 -28 77 -66 69 -154 -3
-38 -9 -73 -12 -78 -6 -11 -141 -12 -148 -1 -2 4 -1 27 4 51 10 53 4 71 -21
71 -26 0 -39 -30 -42 -102 l-2 -62 64 -36 c88 -48 106 -75 105 -153 -1 -76
-27 -179 -54 -217 -31 -44 -85 -65 -165 -64 -141 1 -181 52 -160 202 l7 52 74
0 75 0 -3 -62 c-3 -57 -1 -63 17 -63 27 0 44 40 47 111 l3 59 -69 36 c-96 51
-110 73 -103 157 14 157 43 217 122 253 53 24 138 24 192 0z m-329 -48 c-13
-86 -9 -83 -87 -83 l-69 0 -6 -32 c-3 -18 -8 -57 -12 -85 l-7 -53 50 0 49 0
-10 -65 -9 -65 -52 0 -52 0 -6 -42 c-3 -24 -9 -62 -13 -85 l-7 -43 73 0 72 0
-6 -28 c-3 -15 -8 -46 -11 -69 l-7 -43 -149 0 -149 0 5 23 c5 22 115 712 115
722 0 3 67 5 148 5 l149 0 -9 -57z m775 20 c-14 -101 -11 -98 -90 -101 l-71
-3 -11 -75 c-6 -41 -11 -79 -11 -84 0 -6 23 -10 51 -10 43 0 50 -2 45 -17 -3
-10 -8 -39 -11 -65 l-7 -47 -51 -3 -52 -3 -12 -70 c-6 -38 -12 -76 -12 -82 -1
-9 20 -13 70 -13 l71 0 -7 -42 c-3 -24 -8 -55 -11 -70 l-6 -28 -149 0 -149 0
5 23 c5 24 115 710 115 721 0 3 67 6 149 6 l150 0 -6 -37z m207 27 c0 -6 -20
-137 -45 -292 -25 -155 -45 -287 -45 -295 0 -10 19 -13 71 -13 69 0 71 -1 66
-22 -3 -13 -9 -44 -12 -70 l-7 -48 -149 0 c-82 0 -149 2 -149 4 0 9 111 701
115 724 5 20 11 22 80 22 46 0 75 -4 75 -10z"/>
<path d="M1080 2209 c-53 -10 -88 -34 -113 -77 -22 -38 -50 -186 -42 -223 8
-35 44 -68 108 -99 l52 -25 -2 -62 c-2 -72 -15 -103 -45 -103 -20 0 -20 4 -15
60 l7 60 -70 0 -69 0 -8 -37 c-4 -21 -7 -59 -7 -85 1 -84 62 -124 180 -116 73
5 107 25 140 82 25 45 48 174 40 221 -8 39 -52 81 -113 109 -23 10 -44 25 -48
34 -9 25 7 112 26 135 16 20 19 20 33 7 13 -13 14 -25 7 -63 l-9 -48 72 3 71
3 9 62 c6 45 5 71 -4 93 -24 57 -108 86 -200 69z"/>
<path d="M645 2198 c-2 -7 -27 -157 -55 -333 -27 -176 -52 -328 -54 -337 -4
-17 8 -18 134 -18 l139 0 6 38 c3 20 8 47 11 60 4 21 1 22 -61 22 -75 0 -73
-3 -54 107 l11 63 48 0 c47 0 47 0 54 38 13 78 11 82 -39 82 l-46 0 6 33 c3
17 9 52 13 77 l7 45 67 3 c74 3 67 -5 84 95 l6 37 -136 0 c-100 0 -138 -3
-141 -12z"/>
<path d="M1336 2173 c-4 -21 -9 -50 -12 -65 -5 -27 -4 -28 35 -28 23 0 41 -5
41 -10 0 -14 -79 -509 -85 -538 -6 -22 -4 -23 67 -20 l72 3 45 283 45 282 41
0 42 0 7 46 c12 91 25 84 -143 84 l-149 0 -6 -37z"/>
<path d="M1690 2201 c0 -12 -98 -626 -106 -663 l-6 -28 140 0 139 0 7 46 c10
77 13 74 -60 74 l-66 0 6 28 c3 15 8 45 12 67 11 74 12 75 60 75 49 0 49 1 59
73 l6 47 -47 0 -46 0 6 48 c4 26 10 62 13 80 l5 32 68 0 67 0 7 46 c12 91 23
84 -129 84 -77 0 -135 -4 -135 -9z"/>
</g>
</svg>
